HIERARCHY
ROOT Bip001_Pelvis
{
  OFFSET 2.62766 95.5349 -9.95198
  CHANNELS 6 Xposition Yposition Zposition Zrotation Xrotation Yrotation
  JOINT Bip001_Spine
  {
    OFFSET 1.44608e-005 10.4157 -0.0118244
    CHANNELS 3 Zrotation Xrotation Yrotation
    JOINT Bip001_L_Thigh
    {
      OFFSET 11.2582 -10.4157 0.0118432
      CHANNELS 3 Zrotation Xrotation Yrotation
      JOINT Bip001_L_Calf
      {
        OFFSET -0.720717 -44.8687 0.366937
        CHANNELS 3 Zrotation Xrotation Yrotation
        JOINT Bip001_L_Foot
        {
          OFFSET -0.664439 -41.3745 -3.62995
          CHANNELS 3 Zrotation Xrotation Yrotation
          JOINT Bip001_L_Toe0
          {
            OFFSET 0.0541047 -10.4146 13.4033
            CHANNELS 3 Zrotation Xrotation Yrotation
            End Site
            {
              OFFSET -1.04503e-005 0 7.70137
            }
          }
        }
      }
    }
    JOINT Bip001_R_Thigh
    {
      OFFSET -11.2582 -10.4156 0.0118122
      CHANNELS 3 Zrotation Xrotation Yrotation
      JOINT Bip001_R_Calf
      {
        OFFSET 0.72059 -44.8687 0.36676
        CHANNELS 3 Zrotation Xrotation Yrotation
        JOINT Bip001_R_Foot
        {
          OFFSET 0.664321 -41.3745 -3.62979
          CHANNELS 3 Zrotation Xrotation Yrotation
          JOINT Bip001_R_Toe0
          {
            OFFSET -0.05417 -10.4146 13.4033
            CHANNELS 3 Zrotation Xrotation Yrotation
            End Site
            {
              OFFSET -1.04873e-005 0 7.70137
            }
          }
        }
      }
    }
    JOINT Bip001_Spine1
    {
      OFFSET 1.90638e-005 14.8539 1.10727
      CHANNELS 3 Zrotation Xrotation Yrotation
      JOINT Bip001_Spine2
      {
        OFFSET 2.28934e-005 14.7848 -1.7233
        CHANNELS 3 Zrotation Xrotation Yrotation
        JOINT Bip001_Neck
        {
          OFFSET 2.24514e-005 15.6905 -0.498826
          CHANNELS 3 Zrotation Xrotation Yrotation
          JOINT Bip001_L_Clavicle
          {
            OFFSET 6.17691 -0.000591152 0.00852867
            CHANNELS 3 Zrotation Xrotation Yrotation
            JOINT Bip001_L_UpperArm
            {
              OFFSET 11.773 -0.0611878 0.00197697
              CHANNELS 3 Zrotation Xrotation Yrotation
              JOINT Bip001_L_Forearm
              {
                OFFSET 26.4515 0.0817566 -2.1958
                CHANNELS 3 Zrotation Xrotation Yrotation
                JOINT Bip001_L_Hand
                {
                  OFFSET 32.8677 0.156743 1.67112
                  CHANNELS 3 Zrotation Xrotation Yrotation
                  JOINT Bip001_L_Finger0
                  {
                    OFFSET 6.16268 -2.25225 6.01675
                    CHANNELS 3 Zrotation Xrotation Yrotation
                    End Site
                    {
                      OFFSET 4.30499 -1.46662 0.618149
                    }
                  }
                  JOINT Bip001_L_Finger1
                  {
                    OFFSET 11.2958 -0.718372 -0.201963
                    CHANNELS 3 Zrotation Xrotation Yrotation
                    End Site
                    {
                      OFFSET 6.31953 -0.405162 -0.0802303
                    }
                  }
                }
              }
            }
          }
          JOINT Bip001_R_Clavicle
          {
            OFFSET -6.17691 -0.000574027 0.00851164
            CHANNELS 3 Zrotation Xrotation Yrotation
            JOINT Bip001_R_UpperArm
            {
              OFFSET -11.773 -0.0611516 0.00194365
              CHANNELS 3 Zrotation Xrotation Yrotation
              JOINT Bip001_R_Forearm
              {
                OFFSET -26.4514 0.0822335 -2.19736
                CHANNELS 3 Zrotation Xrotation Yrotation
                JOINT Bip001_R_Hand
                {
                  OFFSET -32.8678 0.156816 1.67144
                  CHANNELS 3 Zrotation Xrotation Yrotation
                  JOINT Bip001_R_Finger0
                  {
                    OFFSET -6.16272 -2.25224 6.01671
                    CHANNELS 3 Zrotation Xrotation Yrotation
                    End Site
                    {
                      OFFSET -4.30501 -1.46661 0.618135
                    }
                  }
                  JOINT Bip001_R_Finger1
                  {
                    OFFSET -11.2958 -0.718342 -0.201994
                    CHANNELS 3 Zrotation Xrotation Yrotation
                    End Site
                    {
                      OFFSET -6.31954 -0.405145 -0.0802477
                    }
                  }
                }
              }
            }
          }
          JOINT Bip001_Head
          {
            OFFSET 1.11782e-005 11.4912 2.09908
            CHANNELS 3 Zrotation Xrotation Yrotation
            End Site
            {
              OFFSET 2.95145e-005 21.2823 -2.83069e-005
            }
          }
        }
      }
    }
  }
}
MOTION
Frames:	15
Frame Time:	0.0333333
-2.05559 95.6722 -2.84932 0.154364 -0.493907 7.86771 0.0990234 0.292255 0.219509 -4.02278 1.30145 4.32882 -0.00383217 11.1852 -0.0363509 11.3947 -9.59535 -12.3056 -4.64236e-013 -4.13423e-007 2.37601e-007 -2.22432 -12.6385 -1.71485 -0.110262 33.7068 0.626463 4.40412 -23.7304 -8.19864 7.20593e-016 0 -3.97569e-016 0.203445 0.58328 0.428577 0.200605 0.576509 0.433279 -1.13416 -4.84603 3.73693 -26.0872 12.0774 -15.6022 -43.3323 20.0031 5.63689 -2.05868 0.444873 -21.0692 4.46225 9.03956 -3.07963 3.18055e-015 3.18055e-015 -0 1.59028e-015 6.36111e-015 -3.18055e-015 26.1624 8.2235 8.82488 48.6815 43.9454 -9.8323 -1.37829 -2.07493 25.3945 -0.0998774 -1.59511 3.54243 1.76556e-031 -3.18055e-015 3.18055e-015 1.32417e-031 -3.18056e-015 2.38542e-015 0.664101 2.67835 3.15901 
-2.05559 95.672 -2.85506 0.154383 -0.493904 7.86991 0.0990234 0.292255 0.219509 -4.02278 1.30145 4.32882 -0.00383217 11.1852 -0.0363509 11.3947 -9.59535 -12.3056 -4.67342e-013 -4.13423e-007 2.37601e-007 -2.22695 -12.6384 -1.72686 -0.110262 33.7068 0.626463 4.40412 -23.7304 -8.19864 1.44119e-015 0 3.97569e-016 0.203445 0.58328 0.428577 0.200605 0.576509 0.433279 -1.11986 -4.88012 3.71092 -26.1108 12.0837 -15.5608 -43.2916 20.0444 5.59177 -2.05868 0.444873 -21.0692 4.46067 9.01049 -3.07938 -1.59028e-015 -3.18055e-015 -0 -3.18055e-015 0 3.18055e-015 26.2062 8.26172 8.82574 48.6677 43.8179 -9.88132 -1.37773 -2.07466 25.4101 -0.107509 -1.47187 3.54222 -1.59028e-015 -3.18055e-015 7.95139e-016 -1.59028e-015 0 7.95139e-016 0.665003 2.6784 3.1397 
-2.05547 95.6717 -2.86093 0.154454 -0.493894 7.87806 0.0990234 0.292255 0.219509 -4.02259 1.30147 4.32047 -0.00375032 11.1843 -0.0367761 11.3947 -9.59535 -12.3056 -4.65379e-013 -4.13423e-007 2.37601e-007 -2.23023 -12.6495 -1.74035 -0.109416 33.7068 0.624938 4.40412 -23.7304 -8.19864 3.97569e-016 0 3.97569e-016 0.203399 0.58328 0.433031 0.200605 0.576509 0.433279 -1.10197 -4.91548 3.68472 -26.1355 12.103 -15.5188 -43.251 20.0773 5.54593 -2.05868 0.444873 -21.0692 4.45898 8.97942 -3.07912 0 1.27222e-014 -0 0 9.54167e-015 -0 26.2455 8.30296 8.83357 48.6538 43.6998 -9.92453 -1.37713 -2.07438 25.4268 -0.114896 -1.35258 3.54204 -1.59028e-015 -3.18055e-015 7.95139e-016 1.59028e-015 -6.36111e-015 -7.95139e-016 0.665927 2.67845 3.11993 
-2.05508 95.6715 -2.8673 0.153998 -0.490194 7.88456 0.098986 0.292254 0.22684 -4.02166 1.29347 4.30602 -0.00367014 11.1769 -0.0372137 11.3947 -9.59535 -12.3056 -4.64658e-013 -4.13423e-007 2.37601e-007 -2.23315 -12.6664 -1.75137 -0.108544 33.7088 0.623334 4.40412 -23.7304 -8.19864 8.69681e-016 0 -3.97569e-016 0.203196 0.583278 0.452967 0.200408 0.576508 0.452846 -1.08742 -4.9555 3.65781 -26.1571 12.1256 -15.4744 -43.2145 20.1011 5.49844 -2.05868 0.444873 -21.0692 4.45155 8.93698 -3.07876 3.18055e-015 3.18055e-015 -3.18055e-015 3.53113e-031 3.18056e-015 -6.36111e-015 26.2792 8.34983 8.82121 48.6396 43.6145 -9.9439 -1.37693 -2.07428 25.4323 -0.139396 -1.24432 3.54189 0 0 -7.95139e-016 -0 -3.18056e-015 -0 0.666988 2.67851 3.09722 
-2.05451 95.6713 -2.87408 0.152049 -0.481234 7.89021 0.0995896 0.292254 0.236954 -4.02062 1.28384 4.29216 -0.00358782 11.1699 -0.0376616 11.3947 -9.59535 -12.3056 -4.65627e-013 -4.13423e-007 2.37601e-007 -2.23245 -12.6858 -1.75506 -0.107661 33.711 0.621708 4.40412 -23.7304 -8.19864 1.73936e-016 3.9757e-016 7.95137e-016 0.202011 0.583277 0.474249 0.200154 0.58194 0.473647 -1.07559 -4.99872 3.63072 -26.1764 12.1508 -15.4276 -43.1865 20.1104 5.44905 -2.05868 0.444873 -21.0692 4.42407 8.89032 -3.07021 -1.59028e-015 -1.27222e-014 3.18055e-015 8.82782e-031 -1.59028e-014 3.18055e-015 26.3095 8.39847 8.78765 48.622 43.5596 -9.94142 -1.37687 -2.07426 25.4338 -0.165323 -1.1492 3.54177 -4.77083e-015 -3.18055e-015 -0 -1.59028e-015 -3.18056e-015 7.95139e-016 0.688276 2.67857 3.07167 
-2.05364 95.6716 -2.88173 0.149092 -0.469619 7.89559 0.100278 0.292254 0.246827 -4.01945 1.27248 4.27783 -0.00350309 11.1646 -0.0381169 11.3905 -9.60018 -12.3103 -4.6605e-013 -4.13423e-007 2.37601e-007 -2.23079 -12.7063 -1.75589 -0.106851 33.713 0.620128 4.40841 -23.7301 -8.20365 1.2424e-016 7.9514e-016 -0 0.199591 0.586697 0.494569 0.199911 0.586682 0.493566 -1.06894 -5.04203 3.60562 -26.1849 12.1769 -15.3783 -43.1636 20.1114 5.40092 -2.05868 0.444873 -21.0692 4.39758 8.86142 -3.06213 3.18055e-015 -3.18055e-015 -3.18055e-015 0 0 -3.18055e-015 26.3375 8.44042 8.7517 48.6124 43.5397 -9.93885 -1.37693 -2.07428 25.4323 -0.19519 -1.08741 3.54505 -3.18055e-015 -3.18055e-015 -3.97569e-015 -3.18055e-015 -3.18056e-015 -3.97569e-015 0.714059 2.67864 3.04516 
-2.05251 95.6723 -2.89027 0.145672 -0.455351 7.90158 0.100841 0.292254 0.256251 -4.01564 1.25771 4.26017 -0.00341636 11.1612 -0.0385765 11.3774 -9.60578 -12.315 -4.64882e-013 -4.13423e-007 2.37601e-007 -2.22905 -12.7287 -1.75627 -0.106257 33.7146 0.618662 4.40699 -23.7288 -8.2296 7.20593e-016 0 -0 0.196739 0.591146 0.514064 0.199676 0.590739 0.512938 -1.06517 -5.08574 3.58187 -26.1875 12.2038 -15.3336 -43.1429 20.1063 5.35321 -2.05873 0.444891 -21.0631 4.37155 8.84895 -3.0592 3.18055e-015 0 -6.36111e-015 1.59028e-015 3.18056e-015 -6.36111e-015 26.3602 8.47997 8.71237 48.6065 43.5487 -9.93506 -1.37706 -2.07434 25.4286 -0.228689 -1.05627 3.55195 -6.36111e-015 -6.36111e-015 -7.95139e-016 -7.95139e-015 -3.18056e-015 -7.95139e-016 0.747223 2.67871 3.01721 
-2.05125 95.6731 -2.89676 0.14222 -0.447154 7.91178 0.101391 0.292254 0.264215 -4.01074 1.24484 4.24087 -0.0033291 11.1583 -0.0390372 11.3627 -9.61252 -12.3179 -4.64584e-013 -4.13423e-007 2.37601e-007 -2.22698 -12.7416 -1.75871 -0.10577 33.7152 0.617375 4.4067 -23.7293 -8.24183 2.98176e-016 3.9757e-016 7.95137e-016 0.194146 0.594069 0.530305 0.199482 0.593677 0.529151 -1.05906 -5.11827 3.55926 -26.1876 12.2203 -15.2963 -43.1263 20.0861 5.30855 -2.0588 0.444919 -21.0539 4.36119 8.85772 -3.0598 -4.77083e-015 9.54166e-015 -9.54166e-015 -3.18055e-015 9.54167e-015 -9.54166e-015 26.3626 8.50879 8.67885 48.6083 43.6088 -9.93105 -1.37723 -2.07443 25.4238 -0.26817 -1.06944 3.55898 3.18055e-015 6.36111e-015 -0 -2.64834e-031 6.36111e-015 2.38542e-015 0.782056 2.67877 2.9894 
-2.04989 95.6743 -2.90088 0.137924 -0.444806 7.9291 0.102036 0.292253 0.270624 -4.00492 1.23565 4.22067 -0.00324164 11.1563 -0.039496 11.3451 -9.621 -12.3207 -4.65652e-013 -4.13423e-007 2.37601e-007 -2.22054 -12.7448 -1.76687 -0.105366 33.7098 0.616302 4.4073 -23.7318 -8.24426 4.47265e-016 7.9514e-016 -0 0.192456 0.596172 0.542918 0.199332 0.5958 0.541712 -1.04622 -5.13589 3.53729 -26.1869 12.2244 -15.2666 -43.1209 20.0541 5.26594 -2.05885 0.444941 -21.0465 4.36461 8.89829 -3.06359 3.18055e-015 0 -3.18055e-015 1.59028e-015 0 -3.18055e-015 26.3548 8.51911 8.65449 48.6094 43.7179 -9.91786 -1.37766 -2.07463 25.4121 -0.314177 -1.12967 3.56279 -3.18055e-015 0 3.18055e-015 -1.59028e-015 -3.18056e-015 2.38542e-015 0.803857 2.67883 2.96644 
-2.04841 95.6751 -2.903 0.129083 -0.444651 7.95264 0.102881 0.292253 0.275697 -3.99539 1.22957 4.20134 -0.00315429 11.1557 -0.0399498 11.3381 -9.62966 -12.3258 -4.65031e-013 -4.13423e-007 2.37601e-007 -2.22078 -12.7429 -1.78925 -0.105026 33.7006 0.615379 4.40895 -23.7347 -8.24189 8.44833e-016 7.9514e-016 1.19271e-015 0.192308 0.59777 0.552194 0.199213 0.597462 0.551577 -1.0397 -5.13827 3.51717 -26.1831 12.2169 -15.2465 -43.1264 20.0166 5.22856 -2.05889 0.444953 -21.0426 4.37296 8.9428 -3.07174 -1.59028e-015 -6.36111e-015 -0 -1.59028e-015 -3.18056e-015 -0 26.3361 8.51928 8.63311 48.6144 43.8744 -9.90231 -1.37807 -2.07483 25.4007 -0.365686 -1.22913 3.5651 -6.36111e-015 -3.18055e-015 1.59028e-015 -4.77083e-015 0 7.95139e-016 0.81355 2.66977 2.94804 
-2.04698 95.6758 -2.90165 0.116511 -0.445402 7.98559 0.104035 0.292253 0.279372 -3.98221 1.2271 4.1844 -0.00306733 11.1567 -0.0403957 11.3355 -9.63867 -12.3333 -4.65453e-013 -4.13423e-007 2.37601e-007 -2.2276 -12.729 -1.83828 -0.104618 33.683 0.614447 4.41202 -23.7376 -8.23721 7.95137e-016 3.9757e-016 3.97569e-016 0.194339 0.598939 0.55878 0.199128 0.598731 0.558571 -1.03776 -5.13382 3.4993 -26.179 12.205 -15.231 -43.1395 19.9755 5.19743 -2.0589 0.44496 -21.0402 4.38758 8.98373 -3.07728 4.77083e-015 3.18055e-015 3.18055e-015 4.77083e-015 -3.18056e-015 -0 26.3073 8.51373 8.61291 48.6272 44.0756 -9.88904 -1.37837 -2.07497 25.3925 -0.423001 -1.36627 3.56587 1.59028e-015 0 -2.38542e-015 1.59028e-015 0 -1.59028e-015 0.818396 2.64548 2.93163 
-2.04509 95.6761 -2.90079 0.111536 -0.445785 8.01954 0.105597 0.292253 0.283034 -3.97735 1.22424 4.1665 -0.00298107 11.1597 -0.0408305 11.3351 -9.64219 -12.3395 -4.6349e-013 -4.13423e-007 2.37601e-007 -2.23636 -12.7138 -1.88964 -0.10431 33.6703 0.613598 4.41557 -23.7421 -8.23286 1.49088e-016 7.9514e-016 7.95137e-016 0.201486 0.599754 0.565673 0.201578 0.59968 0.565014 -1.04039 -5.12123 3.4828 -26.1768 12.1842 -15.2229 -43.1572 19.9316 5.17234 -2.05891 0.44496 -21.04 4.40516 9.01808 -3.07914 -7.95139e-015 -6.36111e-015 -3.18055e-015 -7.95139e-015 -9.54167e-015 -3.18055e-015 26.2669 8.49017 8.58673 48.6417 44.3299 -9.86657 -1.37866 -2.07511 25.3843 -0.484963 -1.53961 3.56017 1.59028e-015 -3.18055e-015 7.95139e-016 -1.59028e-015 -6.36111e-015 3.18055e-015 0.821467 2.61047 2.91699 
-2.04211 95.676 -2.90442 0.10991 -0.444528 8.04629 0.107668 0.292253 0.28775 -3.97682 1.21665 4.14699 -0.00289519 11.1659 -0.0412515 11.3401 -9.6437 -12.3419 -4.66224e-013 -4.13423e-007 2.37601e-007 -2.2434 -12.7132 -1.92052 -0.104167 33.6676 0.612868 4.419 -23.7483 -8.23136 1.98784e-016 7.9514e-016 7.95137e-016 0.211295 0.600293 0.574446 0.21131 0.600379 0.574169 -1.05194 -5.10265 3.46773 -26.1687 12.1605 -15.2186 -43.1781 19.8846 5.15653 -2.05889 0.444954 -21.0421 4.42051 9.03459 -3.07948 -3.18055e-015 -6.36111e-015 3.18055e-015 -6.36111e-015 -3.18056e-015 6.36111e-015 26.2208 8.45432 8.5435 48.6538 44.6426 -9.82711 -1.37892 -2.07523 25.3771 -0.550924 -1.74492 3.54334 -1.59028e-015 -1.27222e-014 -0 -5.29669e-031 -1.27222e-014 -2.38542e-015 0.823933 2.56905 2.90311 
-2.0384 95.6756 -2.91107 0.110963 -0.438211 8.06865 0.110858 0.292253 0.2929 -3.98198 1.20334 4.12675 -0.00281416 11.1701 -0.0416547 11.3448 -9.64395 -12.3416 -4.66e-013 -4.13423e-007 2.37601e-007 -2.24948 -12.7218 -1.93128 -0.104115 33.6695 0.612217 4.42303 -23.7564 -8.23525 -3.23024e-016 3.9757e-016 7.95137e-016 0.220712 0.60063 0.585163 0.22074 0.6007 0.585075 -1.07846 -5.08248 3.45499 -26.1524 12.1367 -15.2165 -43.2011 19.837 5.14797 -2.05885 0.44494 -21.0469 4.43428 9.04015 -3.07899 1.76556e-031 3.18055e-015 -3.18055e-015 -3.18055e-015 3.18056e-015 -3.18055e-015 26.1736 8.40772 8.48014 48.6617 45.0152 -9.76444 -1.37931 -2.07541 25.3666 -0.620096 -1.98567 3.51987 -1.32417e-031 -3.18055e-015 -2.38542e-015 -1.59028e-015 -3.18056e-015 -7.95139e-016 0.826841 2.52972 2.88709 
-2.03426 95.675 -2.92137 0.115104 -0.420986 8.08469 0.115642 0.292253 0.300361 -3.99757 1.18077 4.10414 -0.0027361 11.1755 -0.0420377 11.348 -9.64368 -12.3403 -4.66671e-013 -4.13423e-007 2.37601e-007 -2.26338 -12.7438 -1.93263 -0.104152 33.6759 0.611643 4.42769 -23.7663 -8.25287 8.44833e-016 0 7.95137e-016 0.228822 0.599424 0.597627 0.228768 0.598694 0.597681 -1.10802 -5.07195 3.44333 -26.1385 12.1219 -15.2163 -43.2218 19.79 5.14273 -2.05873 0.444895 -21.062 4.44456 9.04293 -3.07836 -1.59028e-015 0 -0 -1.59028e-015 0 3.18055e-015 26.1072 8.35715 8.37968 48.6714 45.4686 -9.65179 -1.38041 -2.07593 25.336 -0.691216 -2.27191 3.49633 8.82781e-032 -3.18055e-015 1.59028e-015 1.59028e-015 0 -0 0.832418 2.48997 2.86904 
